<svg xmlns="http://www.w3.org/2000/svg" xml:space="preserve" width="80mm" height="378" viewBox="0 0 80 100"><path d="m59 168-1-46c-2-7-10-12 5-25l2 3c-6 6-7 12-1 19l18 16 23-9c6-5 14-8 15-17l3 1c0 4 0 8-3 11l-2 46a51 51 0 0 1-59 1z" style="fill:#ffd388;fill-opacity:1;stroke-width:.242416" transform="translate(-51 -78)"/><path d="m83 135 8-3 1-17c-1-6-4-5-7-5-5-2-5-7-5-13-12-3-22-3-20 12 0 4 1 8 4 10z" style="fill:#ff7095;fill-opacity:1;stroke-width:.242416" transform="translate(-51 -78)"/><path d="M106 93c-3 14-12 18-14 23-2 8-2 8 0 16 13-5 22-12 29-22-2-7-9-14-15-17z" style="fill:#47c75d;fill-opacity:1;stroke-width:.242416" transform="translate(-51 -78)"/><path d="M78 97c-2-6-3-11 7-16 6-1 11 1 13 4 11 3 9 10 5 17 2 3-3 6-4 10-9-1-5 1-6 3-1-3-4-5-9-5-3-3-9-7-6-13z" style="fill:#ffc800;fill-opacity:1;stroke-width:.242416" transform="translate(-51 -78)"/><path d="M75 93c-4 0-13-2-19 9-5 6-5 14-1 20v40c0 14 23 16 34 16 12 0 32-4 33-14v-42c3-4 4-10 2-15-2-6-7-11-16-15-1-7-12-13-18-13-11-3-16 11-15 14Zm12-11c11 1 17 5 16 19-2 13-12 9-18 6-7-3-10-25 2-25zm20 15c32 11-7 30-13 32 0-1-3-11 3-15 10 0 7-10 10-17zm-31 1c1 3 4 15 12 15 1 0 6 17-6 20-8-6-25-17-21-28 3-12 11-8 15-7zm-18 8c-1 4 0 8 2 12l13 13c6 6 22 19 23 15l-10-9c12-4 23-10 31-17v43c0 4-14 13-31 12-16-2-26-6-26-13v-36l-2-9c-2-4-1-8 0-11z" style="fill:#68440a;fill-opacity:1;stroke-width:.380007" transform="translate(-51 -78)"/></svg>